{"title":"Borgman.2013.720p.BRRip.x264-Fastbet99","uid":9549176,"size":1459657942,"categoryP":"video","categoryS":"hd___movies","magnet":"?xt=urn:btih:92a1e5b1b85fbb2a242f3506c449a2b4623b3d30&amp;dn=Borgman.2013.720p.BRRip.x264-Fastbet99&amp;tr=udp%3A%2F%2Ftracker.openbittorrent.com%3A80&amp;tr=udp%3A%2F%2Fopen.demonii.com%3A1337&amp;tr=udp%3A%2F%2Ftracker.coppersurfer.tk%3A6969&amp;tr=udp%3A%2F%2Fexodus.desync.com%3A6969","seeders":4,"leechers":4,"uploader":"Fastbet99","files":-1,"time":1391202906,"description":"Borgman (2013)\n\nIMDB Info\t\t\t\t : http://www.imdb.com/title/tt1954315\n\nSource\t\t\t\t\t : PHD (Thanks)\nComplete name                            : Borgman.2013.720p.BRRip.x264-Fastbet99.mp4\nFormat                                   : MPEG-4\nFormat profile                           : Base Media\nCodec ID                                 : isom\nFile size                                : 1.36 GiB\nDuration                                 : 1h 53mn\nOverall bit rate mode                    : Variable\nOverall bit rate                         : 1 719 Kbps\n\nVideo\nID                                       : 1\nFormat                                   : AVC\nFormat/Info                              : Advanced Video Codec\nFormat profile                           : &lt;a class=&quot;__cf_email__&quot; href=&quot;/cdn-cgi/l/email-protection&quot; data-cfemail=&quot;6c24050b042c2058425d&quot;&gt;[email&amp;#160;protected]&lt;/a&gt;&lt;script cf-hash='f9e31' type=&quot;text/javascript&quot;&gt;\n/* &lt;![CDATA[ */!function(){try{var t=&quot;currentScript&quot;in document?document.currentScript:function(){for(var t=document.getElementsByTagName(&quot;script&quot;),e=t.length;e--;)if(t[e].getAttribute(&quot;cf-hash&quot;))return t[e]}();if(t&amp;&amp;t.previousSibling){var e,r,n,i,c=t.previousSibling,a=c.getAttribute(&quot;data-cfemail&quot;);if(a){for(e=&quot;&quot;,r=parseInt(a.substr(0,2),16),n=2;a.length-n;n+=2)i=parseInt(a.substr(n,2),16)^r,e+=String.fromCharCode(i);e=document.createTextNode(e),c.parentNode.replaceChild(e,c)}}}catch(u){}}();/* ]]&gt; */&lt;/script&gt;\nFormat settings, CABAC                   : Yes\nFormat settings, ReFrames                : 4 frames\nCodec ID                                 : avc1\nCodec ID/Info                            : Advanced Video Coding\nDuration                                 : 1h 53mn\nBit rate                                 : 1 617 Kbps\nMaximum bit rate                         : 9 883 Kbps\nWidth                                    : 1 280 pixels\nHeight                                   : 530 pixels\nDisplay aspect ratio                     : 2.40:1\nFrame rate mode                          : Constant\nFrame rate                               : 24.000 fps\nColor space                              : YUV\nChroma subsampling                       : 4:2:0\nBit depth                                : 8 bits\nScan type                                : Progressive\nBits/(Pixel*Frame)                       : 0.099\nStream size                              : 1.28 GiB (94%)\nWriting library                          : x264 core 138 r2358 9e941d1\n\nAudio\nID                                       : 2\nFormat                                   : AAC\nFormat/Info                              : Advanced Audio Codec\nFormat profile                           : LC\nCodec ID                                 : 40\nDuration                                 : 1h 53mn\nBit rate mode                            : Variable\nBit rate                                 : 96.0 Kbps\nMaximum bit rate                         : 133 Kbps\nChannel count                            : 2 channels\nChannel positions                        : Front: L R\nSampling rate                            : 48.0 KHz\nCompression mode                         : Lossy\nStream size                              : 77.4 MiB (6%)\n\nText #1\nID                                       : 3\nFormat                                   : mp4s\nCodec ID                                 : E0\nDuration                                 : 1h 45mn\nBit rate mode                            : Variable\nBit rate                                 : 1 944 bps\nMaximum bit rate                         : 51.4 Kbps\nStream size                              : 1.47 MiB (0%)\nLanguage                                 : English\n\nText #2\nID                                       : 4\nFormat                                   : Timed Text\nCodec ID                                 : tx3g\nDuration                                 : 1h 46mn\nBit rate mode                            : Variable\nBit rate                                 : 29 bps\nStream size                              : 22.3 KiB (0%)\nLanguage                                 : English\n\nText #3\nID                                       : 5\nFormat                                   : mp4s\nCodec ID                                 : E0\nDuration                                 : 1h 45mn\nBit rate mode                            : Variable\nBit rate                                 : 2 264 bps\nMaximum bit rate                         : 50.9 Kbps\nStream size                              : 1.72 MiB (0%)\nLanguage                                 : French\n\nText #4\nID                                       : 6\nFormat                                   : mp4s\nCodec ID                                 : E0\nDuration                                 : 1h 36mn\nBit rate mode                            : Variable\nBit rate                                 : 224 bps\nMaximum bit rate                         : 45.2 Kbps\nStream size                              : 159 KiB (0%)\nLanguage                                 : Dutch\n\nText #5\nID                                       : 7\nFormat                                   : Timed Text\nCodec ID                                 : tx3g\nDuration                                 : 1h 46mn\nBit rate mode                            : Variable\nBit rate                                 : 36 bps\nStream size                              : 28.1 KiB (0%)\nLanguage                                 : French\n\nText #6\nID                                       : 8\nFormat                                   : Timed Text\nCodec ID                                 : tx3g\nDuration                                 : 1h 36mn\nBit rate mode                            : Variable\nBit rate                                 : 3 bps\nStream size                              : 2.48 KiB (0%)\nLanguage                                 : Dutch\nEncoder\t\t\t\t\t : Fastbet99\n\nScreenshots\n &lt;a href=&quot;\nhttp://lookpic.com/O/i2/1305/HXEl7nb.jpeg&quot; rel=&quot;nofollow&quot; target=&quot;_NEW&quot;&gt;\nhttp://lookpic.com/O/i2/1305/HXEl7nb.jpeg&lt;/a&gt;\n\nStairway To heaven - Help People With Keep Seed As Long You Can","torrent":{"xt":"urn:btih:92a1e5b1b85fbb2a242f3506c449a2b4623b3d30","amp;dn":"Borgman.2013.720p.BRRip.x264-Fastbet99","amp;tr":["udp%3A%2F%2Ftracker.openbittorrent.com%3A80","udp%3A%2F%2Fopen.demonii.com%3A1337","udp%3A%2F%2Ftracker.coppersurfer.tk%3A6969","udp%3A%2F%2Fexodus.desync.com%3A6969"],"infoHash":"92a1e5b1b85fbb2a242f3506c449a2b4623b3d30","infoHashBuffer":{"type":"Buffer","data":[146,161,229,177,184,95,187,42,36,47,53,6,196,73,162,180,98,59,61,48]},"announce":[],"urlList":[]}}